<?xml version="1.0" encoding="utf-8"?>
<!-- Generator: Adobe Illustrator 25.0.0, SVG Export Plug-In . SVG Version: 6.00 Build 0)  -->
<svg version="1.1" id="Layer_1" xmlns="http://www.w3.org/2000/svg" xmlns:xlink="http://www.w3.org/1999/xlink" x="0px" y="0px"
	 viewBox="0 0 325.6 276.1" style="enable-background:new 0 0 325.6 276.1;" xml:space="preserve">
<style type="text/css">
	.st0{opacity:0.18;fill:#20B2AA;enable-background:new    ;}
	.st1{fill:#20B2AA;}
	.st2{fill:url(#SVGID_1_);}
	.st3{fill:#473F47;}
	.st4{fill:#FFFFFF;}
	.st5{fill:none;}
	.st6{fill:url(#SVGID_2_);}
	.st7{fill:#FB682D;}
	.st8{fill:#FFBAAA;}
	.st9{fill:url(#SVGID_3_);}
</style>
<path class="st0" d="M109.3,7.9c-18,9.7-31.1,27.3-36.9,46.9c-3.4,11.6-4.5,23.8-8.5,35.2c-11.2,32.5-43.5,53.7-57.3,85.2
	c-7.7,17.5-9,38-2.5,56S25,264.5,43,270.9c11.1,3.9,23,4.5,34.7,4.9c22,0.7,44.1,0.8,65.7-3.1c10.3-1.9,20.4-4.6,30.8-5.8
	c20.1-2.3,40.6,1.2,60.6-2c13.9-2.3,27.1-7.7,39.7-14.1c9.5-4.7,18.8-10,26.5-17.2c20.6-18.9,28.3-49.6,22.7-77.1s-23-51.6-44.9-69
	c-9.6-7.7-20.1-14.1-30.3-21.2c-13-9-25.4-19-37-29.8C183.9,10.8,148-12.8,109.3,7.9z"/>
<polygon class="st1" points="116.9,234.6 193.1,234.6 179.6,186.2 128.2,186.2 "/>
<linearGradient id="SVGID_1_" gradientUnits="userSpaceOnUse" x1="-414.9884" y1="59.4001" x2="-406.7985" y2="-50.9899" gradientTransform="matrix(-1 0 0 -1 -255.64 234.86)">
	<stop  offset="1.000000e-02" style="stop-color:#000000"/>
	<stop  offset="8.000000e-02" style="stop-color:#000000;stop-opacity:0.69"/>
	<stop  offset="0.21" style="stop-color:#000000;stop-opacity:0.32"/>
	<stop  offset="1" style="stop-color:#000000;stop-opacity:0"/>
</linearGradient>
<polygon class="st2" points="116.9,234.6 193.1,234.6 179.6,186.2 128.2,186.2 "/>
<path class="st1" d="M269,56.7v125c0,7.5-6.1,13.7-13.7,13.7c0,0,0,0,0,0H58c-7.5,0-13.7-6.1-13.7-13.6c0,0,0,0,0,0v-125
	C44.3,49.1,50.4,43,58,43h197.4C262.9,43,269,49.1,269,56.7z"/>
<path class="st3" d="M269,56.7v109.6H44.3V56.7C44.3,49.1,50.4,43,58,43h197.4C262.9,43,269,49.1,269,56.7z"/>
<path class="st4" d="M265.7,59.3v103.3h-218V59.3c0-7.3,6-13.1,13.2-13.1h191.5C259.7,46.1,265.7,52,265.7,59.3z"/>
<path class="st0" d="M265.7,59.3v103.3h-218V59.3c0-7.3,6-13.1,13.2-13.1h191.5C259.7,46.1,265.7,52,265.7,59.3z"/>
<rect x="47.7" y="112.7" class="st4" width="216.2" height="50.6"/>
<line class="st5" x1="231.6" y1="103.1" x2="201.4" y2="86.6"/>
<path class="st1" d="M265.7,59.3v19.1h-218V59.3c0-7.3,6-13.1,13.2-13.1h191.5C259.7,46.1,265.7,52,265.7,59.3z"/>
<linearGradient id="SVGID_2_" gradientUnits="userSpaceOnUse" x1="203.1148" y1="214.9693" x2="194.6748" y2="47.1593" gradientTransform="matrix(1 0 0 -1 -43.96 234.86)">
	<stop  offset="1.000000e-02" style="stop-color:#000000"/>
	<stop  offset="0.13" style="stop-color:#000000;stop-opacity:0.69"/>
	<stop  offset="0.25" style="stop-color:#000000;stop-opacity:0.32"/>
	<stop  offset="1" style="stop-color:#000000;stop-opacity:0"/>
</linearGradient>
<path class="st6" d="M265.7,59.3v19.1h-218V59.3c0-7.3,6-13.1,13.2-13.1h191.5C259.7,46.1,265.7,52,265.7,59.3z"/>
<path class="st4" d="M92,78.5c0,7.7-6.2,13.9-13.9,13.9s-13.9-6.2-13.9-13.9S70.3,64.6,78,64.6C85.7,64.5,92,70.8,92,78.5
	C92,78.5,92,78.5,92,78.5z"/>
<path class="st1" d="M88.1,88.1c-4.8,5-12.4,5.7-18.1,1.8l0.7-2.5c0.5-1.8,2.1-3,3.9-3h1.6l5.9,0.1c1.8,0,3.4,0.7,4.7,2L88.1,88.1z"
	/>
<path class="st7" d="M72.3,82.2l10.6-0.5c0,0,1-8.9-2.9-10.8c-3.6-1.7-6.5-0.2-7.3,2.9S72.3,82.2,72.3,82.2z"/>
<path class="st8" d="M76.2,81.9v2.7c0,0.3,0,0.5,0,0.8c0.2,0.7,0.7,1.2,1.4,1.5c0.2,0.1,0.5,0.2,0.8,0.2c0.3,0,0.6-0.1,0.8-0.3
	c0.1-0.2,0.2-0.4,0.2-0.6c0.2-0.5,0.3-1.1,0.2-1.6c-0.2-0.4-0.2-0.9-0.4-1.4l-0.5-1.8L76.2,81.9z"/>
<linearGradient id="SVGID_3_" gradientUnits="userSpaceOnUse" x1="119.9187" y1="156.7595" x2="125.5887" y2="141.8295" gradientTransform="matrix(1 0 0 -1 -43.96 234.86)">
	<stop  offset="1.000000e-02" style="stop-color:#000000"/>
	<stop  offset="0.13" style="stop-color:#000000;stop-opacity:0.69"/>
	<stop  offset="0.25" style="stop-color:#000000;stop-opacity:0.32"/>
	<stop  offset="1" style="stop-color:#000000;stop-opacity:0"/>
</linearGradient>
<path class="st9" d="M76.3,82.8c0,0,1,2.1,2.1,1.8s0.7-2,0.7-2L76.3,82.8z"/>
<path class="st8" d="M80.8,80c-0.2,0.8-0.5,1.5-0.9,2.2c-0.5,0.7-1.2,1.1-2,1.2c-0.6,0-1.1-0.2-1.6-0.5c-1.8-1.1-2.5-3.4-2.7-5.5
	c-0.2-1.7,0.3-3.4,1.5-4.6c1.8-1.3,4.3-1,5.7,0.7C82,75.1,81.2,78.2,80.8,80z"/>
<path class="st7" d="M73.6,74.1l-0.3,3h1l0.4-1.9l0.2,1.9h1.8l0.2-1.9l0.3,1.7h1.9v-1.8l0.5,1.9h1.8c0,0,1.1-3.5-1.4-4.8
	S74.4,71.5,73.6,74.1z"/>
<path class="st1" d="M60.8,99.2h40.7c0.6,0,1.1,0.5,1.1,1.1v0.1c0,0.6-0.5,1.1-1.1,1.1H60.8c-0.6,0-1-0.5-1-1.1v-0.1
	C59.8,99.7,60.3,99.2,60.8,99.2z"/>
<path class="st1" d="M60.7,104.6h27.5c0.5,0,0.9,0.4,0.9,0.9v0.5c0,0.5-0.4,0.9-0.9,0.9H60.7c-0.5,0-0.9-0.4-0.9-0.9v-0.5
	C59.8,105,60.2,104.6,60.7,104.6z"/>
<path class="st1" d="M94.9,104.6h26.6c0.5,0,0.8,0.4,0.8,0.8v0.6c0,0.5-0.4,0.8-0.8,0.8H94.9c-0.5,0-0.8-0.4-0.8-0.8v-0.6
	C94.1,105,94.4,104.6,94.9,104.6z"/>
<path class="st1" d="M125.8,104.6h26.6c0.5,0,0.9,0.4,0.9,0.8v0.6c0,0.5-0.4,0.8-0.9,0.8h-26.6c-0.5,0-0.8-0.4-0.8-0.8v-0.6
	C124.9,105,125.3,104.6,125.8,104.6z"/>
<rect x="97.1" y="123.2" class="st0" width="119.4" height="10.3"/>
<rect x="97.1" y="141.4" class="st0" width="119.4" height="10.4"/>
<path class="st1" d="M155.8,104.6h26.6c0.5,0,0.9,0.4,0.9,0.8v0.6c0,0.5-0.4,0.8-0.9,0.8h-26.6c-0.5,0-0.9-0.4-0.9-0.8v-0.6
	C155,105,155.3,104.6,155.8,104.6z"/>
<path class="st1" d="M163.9,99.2h40.7c0.6,0,1,0.5,1,1.1v0.1c0,0.6-0.5,1.1-1,1.1h-40.7c-0.6,0-1.1-0.5-1.1-1.1v-0.1
	C162.8,99.7,163.3,99.2,163.9,99.2z"/>
<path class="st1" d="M109.3,99.2H150c0.6,0,1.1,0.5,1.1,1.1v0.1c0,0.6-0.5,1.1-1.1,1.1h-40.7c-0.6,0-1-0.5-1-1.1v-0.1
	C108.2,99.7,108.7,99.2,109.3,99.2z"/>
<path class="st1" d="M188.1,104.6h26.6c0.5,0,0.9,0.4,0.9,0.8v0.6c0,0.5-0.4,0.8-0.9,0.8h-26.6c-0.5,0-0.9-0.4-0.9-0.8v-0.6
	C187.2,105,187.6,104.6,188.1,104.6z"/>
<g>
	<path class="st4" d="M137.3,57.3V72h-2.9V57.3H137.3z M136.3,57.3h7.4v2.5h-7.4V57.3z M136.3,62.9h7v2.5h-7V62.9z M136.3,69.4h7.4
		V72h-7.4V69.4z"/>
	<path class="st4" d="M149.8,57.3V72h-3V57.3H149.8z"/>
	<path class="st4" d="M152.7,61.5c0.4-0.9,0.9-1.7,1.6-2.4s1.5-1.2,2.5-1.6c0.9-0.4,2-0.6,3.1-0.6c1.1,0,2.1,0.2,3.1,0.6
		c0.9,0.4,1.8,0.9,2.5,1.6c0.7,0.7,1.3,1.5,1.6,2.4c0.4,0.9,0.6,2,0.6,3.1c0,1.1-0.2,2.1-0.6,3.1c-0.4,0.9-0.9,1.8-1.6,2.5
		c-0.7,0.7-1.5,1.2-2.5,1.6c-0.9,0.4-2,0.6-3.1,0.6c-1.1,0-2.2-0.2-3.1-0.6c-0.9-0.4-1.8-0.9-2.5-1.6c-0.7-0.7-1.2-1.5-1.6-2.5
		c-0.4-0.9-0.6-2-0.6-3.1C152.1,63.5,152.3,62.5,152.7,61.5z M155.8,67.1c0.4,0.7,0.9,1.3,1.6,1.7s1.5,0.6,2.4,0.6s1.7-0.2,2.4-0.6
		s1.2-1,1.6-1.7s0.6-1.6,0.6-2.5s-0.2-1.8-0.6-2.5c-0.4-0.7-0.9-1.3-1.6-1.7c-0.7-0.4-1.5-0.6-2.4-0.6c-0.9,0-1.7,0.2-2.4,0.6
		c-0.7,0.4-1.2,1-1.6,1.7c-0.4,0.7-0.6,1.6-0.6,2.5S155.4,66.4,155.8,67.1z"/>
	<path class="st4" d="M172.3,68.4c0.4,0.4,0.8,0.7,1.2,0.9c0.4,0.2,0.9,0.3,1.4,0.3c0.6,0,1.1-0.2,1.5-0.5s0.6-0.7,0.6-1.3
		c0-0.5-0.1-0.8-0.3-1.1c-0.2-0.3-0.6-0.5-1-0.7c-0.5-0.2-1-0.5-1.7-0.7c-0.3-0.1-0.8-0.3-1.2-0.5c-0.5-0.2-0.9-0.5-1.3-0.8
		s-0.7-0.8-1-1.3S170,61.7,170,61c0-0.8,0.2-1.6,0.6-2.2c0.4-0.6,1-1.1,1.7-1.4c0.7-0.3,1.6-0.5,2.5-0.5c0.9,0,1.7,0.2,2.4,0.5
		c0.7,0.3,1.2,0.7,1.7,1.2c0.5,0.5,0.8,1,1.1,1.5l-2.4,1.3c-0.2-0.3-0.4-0.7-0.7-1c-0.3-0.3-0.6-0.5-0.9-0.7
		c-0.4-0.2-0.7-0.3-1.2-0.3c-0.6,0-1,0.1-1.3,0.4c-0.3,0.3-0.4,0.6-0.4,1s0.1,0.7,0.4,1c0.2,0.3,0.6,0.5,1.1,0.8s1.1,0.5,1.8,0.7
		c0.5,0.2,0.9,0.4,1.4,0.6c0.4,0.3,0.8,0.6,1.2,0.9c0.4,0.4,0.6,0.8,0.8,1.3c0.2,0.5,0.3,1,0.3,1.7c0,0.7-0.1,1.4-0.4,1.9
		c-0.3,0.6-0.7,1-1.2,1.4s-1,0.7-1.6,0.9c-0.6,0.2-1.2,0.3-1.9,0.3c-0.9,0-1.7-0.2-2.5-0.5c-0.8-0.3-1.5-0.8-2-1.4
		c-0.6-0.6-1-1.2-1.3-1.9l2.1-1.5C171.5,67.6,171.9,68,172.3,68.4z"/>
</g>
</svg>
