<?xml version="1.0" encoding="utf-8"?>
<!-- Generator: Adobe Illustrator 25.0.0, SVG Export Plug-In . SVG Version: 6.00 Build 0)  -->
<svg version="1.1" id="Layer_1" xmlns="http://www.w3.org/2000/svg" xmlns:xlink="http://www.w3.org/1999/xlink" x="0px" y="0px"
	 viewBox="0 0 379.9 294.9" style="enable-background:new 0 0 379.9 294.9;" xml:space="preserve">
<style type="text/css">
	.st0{opacity:0.18;fill:#20B2AA;enable-background:new    ;}
	.st1{fill:#20B2AA;}
	.st2{fill:url(#SVGID_1_);}
	.st3{fill:#473F47;}
	.st4{fill:#FFFFFF;}
	.st5{fill:url(#SVGID_2_);}
	.st6{fill:#FCA89E;}
	.st7{fill:url(#SVGID_3_);}
	.st8{font-family:'Corbel-BoldItalic';}
	.st9{font-size:3.4006px;}
</style>
<path class="st0" d="M164.6,25.4c-3,1.4-5.9,3-8.7,4.6c-33.5,19.9-57,57-93.6,69.3c-9.9,3.4-20.6,4.2-28.6,11.6
	c-5.8,5.5-10.8,11.8-15,18.7c-8.7,14.3-14.6,30.3-17.1,47c-5,32.4,2,69,26.9,91.1c18.7,16.8,46.6,17.5,69.9,13.1
	c13.4-2.6,26.2-7.7,39.6-10.9c23.2-5.7,47.4-6.3,70.8-1.3c15.4,3.2,30.4,8.9,45.8,12.2c11.1,2.5,22.7,3.9,34,2.3
	c10.8-1.5,19.3-6.8,29.2-11.2c18.9-8.3,37.9-18.9,49.9-36.7c9.3-13.9,13.5-30.8,12.1-47.7c-1.6-16.9-8.1-32.8-18.9-45.5
	c-4.8-5.7-11-10.7-13.3-18.1c-2.3-7.4-2.7-15.8-3.4-23.1c-1.6-16.3-3.4-33.2-11.1-47.5c-8.5-16-23.6-27.4-40.1-33.8
	c-16.5-6.5-34.3-8.3-51.9-8.4C214.8,10.8,188,14.1,164.6,25.4z"/>
<polygon class="st1" points="159.4,244 235.6,244 222.1,195.5 170.8,195.5 "/>
<linearGradient id="SVGID_1_" gradientUnits="userSpaceOnUse" x1="-6178.5762" y1="-653.4731" x2="-6170.3862" y2="-763.863" gradientTransform="matrix(-1 0 0 -1 -5976.6929 -468.5932)">
	<stop  offset="1.000000e-02" style="stop-color:#000000"/>
	<stop  offset="8.000000e-02" style="stop-color:#000000;stop-opacity:0.69"/>
	<stop  offset="0.21" style="stop-color:#000000;stop-opacity:0.32"/>
	<stop  offset="1" style="stop-color:#000000;stop-opacity:0"/>
</linearGradient>
<polygon class="st2" points="159.4,244 235.6,244 222.1,195.5 170.8,195.5 "/>
<path class="st1" d="M311.6,66v125c0,7.5-6.1,13.7-13.7,13.7l0,0H100.5c-7.5,0-13.7-6.1-13.7-13.7l0,0V66c0-7.5,6.1-13.7,13.7-13.7
	h197.4C305.5,52.3,311.6,58.5,311.6,66L311.6,66z"/>
<path class="st3" d="M311.6,66v109.6H86.8V66c0-7.6,6.1-13.7,13.7-13.7h197.4C305.5,52.3,311.6,58.5,311.6,66z"/>
<path class="st4" d="M308.2,68.7V172h-218V68.7c0-7.3,6-13.2,13.3-13.1l0,0H295C302.2,55.5,308.2,61.4,308.2,68.7L308.2,68.7z"/>
<path class="st0" d="M308.2,68.7V172h-218V68.7c0-7.3,6-13.2,13.3-13.1l0,0H295C302.2,55.5,308.2,61.4,308.2,68.7L308.2,68.7z"/>
<linearGradient id="SVGID_2_" gradientUnits="userSpaceOnUse" x1="221.9105" y1="-753.0615" x2="71.5605" y2="-251.3215" gradientTransform="matrix(1 0 0 -1 -18.37 -468.5932)">
	<stop  offset="1.000000e-02" style="stop-color:#000000"/>
	<stop  offset="8.000000e-02" style="stop-color:#000000;stop-opacity:0.69"/>
	<stop  offset="0.21" style="stop-color:#000000;stop-opacity:0.32"/>
	<stop  offset="1" style="stop-color:#000000;stop-opacity:0"/>
</linearGradient>
<path class="st5" d="M122.7,128.4c-2.1-8.4-5.4-16.6-7.1-25.1s-1.7-17.2-1.6-25.9c-0.1-2.8,0.2-5.7,1.1-8.4c0.9-2.7,3-5.1,5.7-5.8
	l3.9,25.8c0.8,5.1,1.6,10.2,3.5,15c1.9,4.8,5,9.2,9.5,11.7c-1.5-7.4-2.5-14.9-3-22.4c-0.3-4.1-0.1-9,3.3-11.3c3-2.1,7.4-1,10,1.6
	s3.8,6.3,4.5,9.9c1.1,5.2,1.5,10.6,3.9,15.3c0.8,1.6,2.9,3.3,4.1,2c0.2-0.2,0.4-0.5,0.5-0.8l13.9-27.6c1.3-2.5,2.5-5.8,0.7-8
	c-1.4-1.7,1-13.5,8.6-9.4c0.4,0.2,0.8,0.5,1.1,0.8c0.3,0.5,0.5,1,0.5,1.6c1.3,10.5-0.5,21.1-5.2,30.6c-3.1,6.2-7.4,11.8-10.7,17.9
	c-9.1,16.8-10.1,36.9-8,55.9c-8.5-0.9-14,1.4-22.6,0.5c-2.2-0.2-5.7-0.7-7.9-0.4c-1.3,0.2-7.7,0.8-9-0.1c0,0,2.8-12.3,2.9-14.8
	C125.9,147.5,125,137.8,122.7,128.4z"/>
<path class="st4" d="M159.3,122.5c-0.8,0,1.6-5.1,1.8-5.4c1.8-2.9,3.9-5.7,6.1-8.2c2-2.3,4-4.7,6.2-6.8c2-2,4.6-4.6,7.7-4
	c2.4,0.5,3.8,3.2,3.7,5.6s-1.4,4.6-2.7,6.7c-2.6,4.1-5.4,8-8.3,12L159.3,122.5z"/>
<path class="st4" d="M141.1,125.3c0.8,0.2-0.6-5.4-0.6-5.6c-1.2-3.2-2.6-6.3-4.3-9.3c-1.5-2.7-2.9-5.4-4.7-8
	c-1.6-2.3-3.5-5.5-6.7-5.5c-2.4,0-4.4,2.3-4.8,4.7s0.4,4.8,1.2,7.1c1.7,4.6,3.7,9,5.7,13.4L141.1,125.3z"/>
<path class="st4" d="M135,114.2h30.8c4.4-0.1,8.1,3.4,8.2,7.8l0,0v0.4c0,0-5.9,24-6,32.1c0,4.4,1.4,17.6,1.4,17.6h-38.1
	c0,0,1.8-13.8,1.7-18.4c-0.1-7.9-6.3-31.3-6.3-31.3c-0.1-4.4,3.4-8.1,7.8-8.1l0,0L135,114.2z"/>
<path class="st6" d="M191.8,68.8c0.3-0.9,0.3-1.8,0.2-2.7c-0.3-0.8-0.8-1.5-1.4-2c-1.7-1.4-3.8-2-6-1.7c-0.4,0.1-0.9,0.2-1.2,0.5
	s-0.6,0.6-0.8,1c-1.1,1.7-2.2,3.7-1.5,5.6c0.5,0.9,1,1.8,1.6,2.6c0.3,0.6,0.5,1.3,0.8,1.9c0.8,1.6,3.7,3.7,5.5,2.5
	c0.9-0.6,1.2-2.5,1.6-3.4C191,71.8,191.4,70.3,191.8,68.8z"/>
<path class="st6" d="M114.9,66.1c-0.3-0.9-0.3-1.8-0.2-2.7c0.3-0.8,0.8-1.5,1.4-2c1.7-1.4,3.8-2,6-1.7c0.4,0.1,0.9,0.2,1.2,0.5
	c0.3,0.3,0.6,0.6,0.8,1c1.1,1.7,2.2,3.7,1.5,5.6c-0.5,0.9-1,1.8-1.6,2.6c-0.3,0.6-0.5,1.3-0.8,1.9c-0.8,1.6-3.7,3.7-5.6,2.5
	c-0.9-0.6-1.2-2.5-1.6-3.4C115.7,69.1,115.3,67.6,114.9,66.1z"/>
<path class="st6" d="M155.2,118.7c-0.2,1.9-1.9,3.3-3.8,3.1c-3.8-0.2-4.1-3.1-4.1-3.1v-15h7.9L155.2,118.7L155.2,118.7z"/>
<linearGradient id="SVGID_3_" gradientUnits="userSpaceOnUse" x1="171.3425" y1="-567.1091" x2="166.8725" y2="-604.9391" gradientTransform="matrix(1 0 0 -1 -18.37 -468.5932)">
	<stop  offset="1.000000e-02" style="stop-color:#000000"/>
	<stop  offset="8.000000e-02" style="stop-color:#000000;stop-opacity:0.69"/>
	<stop  offset="0.21" style="stop-color:#000000;stop-opacity:0.32"/>
	<stop  offset="1" style="stop-color:#000000;stop-opacity:0"/>
</linearGradient>
<path class="st7" d="M147.3,111.1c0,0,4.9,7.7,7.9,4v-6L147.3,111.1z"/>
<path class="st6" d="M144,107.2c2,6.1,11.8,6.3,15.1,1.4c1.9-2.8,2.1-6.5,1.5-9.8c-0.5-3.3-1.5-6.5-3-9.5c-1-1.9-2-3.6-4.3-3.9
	c-2.6-0.2-5.2,0.4-7.5,1.7c-4.5,2.4-6.7,7.7-5.2,12.6c0.4,1.2,0.9,2.3,1.5,3.4C142.9,104.4,143.5,105.8,144,107.2z"/>
<path class="st3" d="M160.3,88.7c-0.4,1-1,1.9-1.8,2.7c-1.6,1.5-3.7,2.5-5.9,2.8c-3.2,0.5-6.5-0.1-9.7-0.3c-0.2,1.1-0.9,1.9-1.9,2.3
	c0.5,2.3,1.1,4.5,1.9,6.7c0.8,2.1,1.9,4.1,2.8,6.2c-2.7-1.8-4.7-5-6.7-7.5c-1-1.2-1.9-2.6-2.4-4.1c-0.6-1.5-0.4-3.2,0.4-4.6
	c0.5-0.8,1-1.5,1.6-2.3c0.9-0.7,1.5-1.6,1.8-2.7c0.1-1.1-0.5-2.2-0.6-3.4c0-0.2,0-0.3,0.1-0.5c0.1-0.1,0.2-0.2,0.4-0.2l2.3-0.9
	c-0.2-0.5-0.5-0.9-0.8-1.3c1.4-0.7,2.9-1.1,4.4-1c-0.3-0.7-0.7-1.4-1.2-2c1-0.4,2.2-0.4,3.2,0.2c1.1,0.4,2.1,0.9,3.2,1.4
	c0.1-0.9,0.1-1.7,0.1-2.6c1.4-0.1,2.7,0.3,3.8,1.1c1.1,0.6,2.1,1.4,3,2.4c0.6,0.7,1.1,1.5,1.4,2.4c0.3,1,0.8,1.8,1,2.8
	C160.7,87.2,160.6,88,160.3,88.7z"/>
<path class="st6" d="M141.9,103.2c-0.7,0.1-1.3,0.5-1.7,1.1c-0.2,0.5-0.3,1-0.1,1.5c0.2,0.5,0.4,0.9,0.8,1.3
	c0.2,0.2,0.4,0.4,0.6,0.6c0.4,0.2,0.9,0.3,1.3,0.3s0.7,0,1.1,0c0.2,0,0.4,0,0.5-0.1c0.2-0.1,0.3-0.3,0.4-0.5c0.3-0.7,0.3-1.6,0-2.3
	c-0.2-0.7-0.5-1.4-1-1.9C143.3,102.8,142.5,103.1,141.9,103.2z"/>
<path class="st4" d="M175,97.9c-0.7,1.6-0.9,3.4-0.8,5.2c0.4,3.2,3.4,5.5,6.7,5.1c1.6-0.2,3-1.1,4-2.4c0.9-1.5,1.5-3.2,1.7-4.9
	c1.6-8.2,3-16.4,4.2-24.7c-1.5-0.4-6-2.4-7.2-1.6s-2.4,6-3,7.5c-1,2.7-2,5.3-2.9,8C176.8,92.5,176.2,95.5,175,97.9z"/>
<path class="st4" d="M118.3,98.1c0.1,1.8,0.5,3.5,1.4,5.1c1.8,2.8,5.4,3.6,8.2,1.8c1.3-0.9,2.3-2.2,2.6-3.8c0.2-1.7,0.1-3.5-0.4-5.2
	c-2-8.1-4-16.2-6.3-24.2c-1.5,0.2-6.4,0.2-7.3,1.5c-0.9,1.3,0.2,6.4,0.3,8.1c0.2,2.8,0.4,5.6,0.7,8.4
	C117.7,92.5,118.4,95.5,118.3,98.1z"/>
<rect x="206.9" y="83.8" class="st1" width="66.1" height="42.7"/>
<path class="st1" d="M203.2,134.5h31.2c0.6,0,1.2,0.5,1.2,1.2l0,0c0,0.6-0.5,1.2-1.2,1.2h-31.2c-0.6,0-1.2-0.5-1.2-1.2l0,0
	C202.1,135,202.6,134.5,203.2,134.5z"/>
<path class="st1" d="M242.5,134.5h31.2c0.6,0,1.2,0.5,1.2,1.2l0,0c0,0.6-0.5,1.2-1.2,1.2h-31.2c-0.6,0-1.2-0.5-1.2-1.2l0,0
	C241.3,135,241.8,134.5,242.5,134.5z"/>
<path class="st1" d="M203.2,139.7h50.6c0.6,0,1.2,0.5,1.2,1.2l0,0c0,0.6-0.5,1.2-1.2,1.2h-50.6c-0.6,0-1.2-0.5-1.2-1.2l0,0
	C202.1,140.3,202.6,139.7,203.2,139.7z"/>
<path class="st1" d="M203.2,145h31.2c0.6,0,1.2,0.5,1.2,1.2l0,0c0,0.6-0.5,1.2-1.2,1.2h-31.2c-0.6,0-1.2-0.5-1.2-1.2l0,0
	C202.1,145.5,202.6,145,203.2,145z"/>
<path class="st1" d="M242.5,145h31.2c0.6,0,1.2,0.5,1.2,1.2l0,0c0,0.6-0.5,1.2-1.2,1.2h-31.2c-0.6,0-1.2-0.5-1.2-1.2l0,0
	C241.3,145.5,241.8,145,242.5,145z"/>
<g id="Слой_1_1_">
	<g>
		<path class="st4" d="M240.1,114.2c-2,3.3-6.3,4.8-13.3,4.3c-0.3,0-1.1-0.3-1.3-0.5c-0.4-0.4-0.8-1.2-1.1-2.4
			c-1.6,3.5-3.9,5.2-7,5.1l0.9-4.5c1.6-0.3,2.9-0.9,3.7-2.4c0.9-4.4,1.9-7.9,1.8-9.7c-0.1-1.4-1.3-2-3.2-0.5l1.1-5.5
			c1.5,0,3.6-0.1,4.5,0.2c1,0.3,0.7,1,1,1.5c0.5-0.8,0.9-1.6,1.6-1.7h4.3l-0.7,4.5h-1.9c-0.3,0.1-0.4,0.2-0.5,0.5l-2.1,9.8
			c0.1,0.6,0.5,1,1.4,1.3L240.1,114.2L240.1,114.2z"/>
		<path class="st4" d="M219,112.3l0.7-3.9c-2.4-1.1-4.2-2.5-4.9-5.4c-0.9-3.9,0.8-8.3,5.2-9.4h12.9c2.9-0.7,5.1-2,6.3-4.1h-19.3
			c-3.2,0.6-6.5,3.1-8.3,7.2c-1.5,4.1-0.9,7.7,1.2,10.9C214.3,109.9,216.5,111.3,219,112.3z"/>
		<path class="st4" d="M232,103.3l-1.3,6.5l2.2-0.3c8.6-1.3,16.4-3.1,23-5.8c10.6-3.9,13.6-7.3,13.2-10.3c0-2-2.2-3.9-4.8-3.9h-23.5
			l-0.3,1.4l17,0.1c2.2,0.7,3.1,3,1.2,6.4c-1.8,2.2-5.9,4.7-11.1,7.3c-4.5,1.7-8.5,2.6-12.4,3.1c-1,0.3-1.7-0.1-2.3-0.9
			C232.4,106,232.2,104.7,232,103.3z"/>
		<path class="st4" d="M240.1,113.3l3-15c-7.5,4.6-11.1,9.7-12.9,15h3.6c-0.4-0.8-0.5-2,0.3-3.5c1.1-2.7,3-4.8,5.2-6.7l-2.3,10.2
			H240.1L240.1,113.3z"/>
		<text transform="matrix(1.0473 0 0 1 239.7785 94.5628)" class="st4 st8 st9">КОСТРОМА</text>
	</g>
</g>
</svg>
