<?xml version="1.0" encoding="utf-8"?>
<!-- Generator: Adobe Illustrator 25.0.0, SVG Export Plug-In . SVG Version: 6.00 Build 0)  -->
<svg version="1.1" id="Слой_1" xmlns="http://www.w3.org/2000/svg" xmlns:xlink="http://www.w3.org/1999/xlink" x="0px" y="0px"
	 viewBox="0 0 188.9 99.1" style="enable-background:new 0 0 188.9 99.1;" xml:space="preserve">
<style type="text/css">
	.st0{display:none;}
	.st1{display:inline;fill:#240E33;}
	.st2{fill:#FFFFFF;}
	.st3{font-family:'Corbel-BoldItalic';}
	.st4{font-size:10.7683px;}
</style>
<g id="Слой_2_1_" class="st0">
	<rect x="-1385.1" y="-296.1" class="st1" width="1149" height="586"/>
</g>
<g id="Слой_1_1_">
	<g>
		<path class="st2" d="M95.2,78.3c-6.3,10.5-20,15.3-42,13.7c-0.9-0.1-3.6-1-4.2-1.6c-1.2-1.3-2.5-3.8-3.4-7.5
			C40.6,94,33.3,99.5,23.5,99.1l2.7-14.3c5.1-0.8,9.3-2.8,11.7-7.5c2.7-14,6-25,5.7-30.8c-0.2-4.5-4.2-6.2-10.1-1.5l3.4-17.5
			c4.6-0.1,11.4-0.4,14.2,0.5c3.1,0.9,2.3,3.1,3.2,4.8c1.5-2.5,2.8-5,5.2-5.4h13.5l-2.2,14.2l-6,0.1c-0.9,0.2-1.3,0.7-1.5,1.6
			l-6.6,31c0.4,1.8,1.7,3.2,4.4,4L95.2,78.3L95.2,78.3z"/>
		<path class="st2" d="M28.5,72.3l2.1-12.5c-7.7-3.4-13.4-8-15.4-17c-2.8-12.5,2.5-26.2,16.4-29.8h40.9c9.1-2.2,16-6.4,19.8-13.1
			h-61C21.2,1.8,10.7,9.7,4.9,22.8C0.1,35.8,2,47.1,8.6,57.2C13.5,64.5,20.5,69.1,28.5,72.3z"/>
		<path class="st2" d="M69.6,43.7l-4,20.5l6.9-1c27.2-4,51.8-9.9,72.8-18.3c33.7-12.5,43.2-23.1,41.8-32.7C187.2,5.8,180,0,171.8,0
			H97.4l-0.9,4.5l53.9,0.4c7.1,2.1,9.7,9.5,3.8,20.4c-5.8,7.1-18.6,14.9-35.3,23c-14.1,5.3-27,8.3-39.3,9.9c-3.1,1-5.5-0.2-7.4-2.9
			C70.9,52.2,70.2,48.1,69.6,43.7z"/>
		<path class="st2" d="M95.2,75.3l9.6-47.4c-23.9,14.7-35,30.8-41,47.4h11.3c-1.4-2.6-1.5-6.3,1-11c3.6-8.4,9.6-15.3,16.6-21.1
			l-7.3,32.2L95.2,75.3L95.2,75.3z"/>
		<text transform="matrix(1.0473 0 0 1 94.1866 15.8732)" class="st2 st3 st4">КОСТРОМА</text>
	</g>
</g>
</svg>
