<?xml version="1.0" encoding="utf-8"?>
<!-- Generator: Adobe Illustrator 25.0.0, SVG Export Plug-In . SVG Version: 6.00 Build 0)  -->
<svg version="1.1" id="_x34_eea1ae6-5e32-40ef-85be-39d849886f06"
	 xmlns="http://www.w3.org/2000/svg" xmlns:xlink="http://www.w3.org/1999/xlink" x="0px" y="0px" viewBox="0 0 1248.3 740.6"
	 style="enable-background:new 0 0 1248.3 740.6;" xml:space="preserve">
<style type="text/css">
	.st0{opacity:0.8;}
	.st1{fill:url(#SVGID_1_);}
	.st2{fill:url(#SVGID_2_);}
	.st3{fill:#FDA57D;}
	.st4{fill:url(#SVGID_3_);}
	.st5{fill:url(#SVGID_4_);}
	.st6{fill:#FFFFFF;}
	.st7{fill:#20B2AA;}
	.st8{fill:#DBDBDB;}
	.st9{fill:url(#SVGID_5_);}
	.st10{fill:url(#SVGID_6_);}
	.st11{fill:#4D8AF0;}
	.st12{fill:url(#SVGID_7_);}
	.st13{fill:url(#SVGID_8_);}
	.st14{opacity:0.5;}
	.st15{fill:url(#SVGID_9_);}
	.st16{fill:#69F0AE;}
	.st17{fill:url(#SVGID_10_);}
	.st18{fill:none;stroke:#3AD29F;stroke-width:2;stroke-miterlimit:10;stroke-dasharray:12;}
	.st19{font-family:'Jost-SemiBold';}
	.st20{font-size:24px;}
</style>
<g class="st0">
	
		<linearGradient id="SVGID_1_" gradientUnits="userSpaceOnUse" x1="817.4" y1="234.475" x2="817.4" y2="725.8765" gradientTransform="matrix(1 0 0 -1 0 742)">
		<stop  offset="0" style="stop-color:#808080;stop-opacity:0.25"/>
		<stop  offset="0.54" style="stop-color:#808080;stop-opacity:0.12"/>
		<stop  offset="1" style="stop-color:#808080;stop-opacity:0.1"/>
	</linearGradient>
	<rect x="386.5" y="16.1" class="st1" width="861.9" height="491.4"/>
</g>
<linearGradient id="SVGID_2_" gradientUnits="userSpaceOnUse" x1="396.1" y1="-47.01" x2="396.1" y2="194.9116" gradientTransform="matrix(1 0 0 -1 -163.09 662.78)">
	<stop  offset="0" style="stop-color:#808080;stop-opacity:0.25"/>
	<stop  offset="0.54" style="stop-color:#808080;stop-opacity:0.12"/>
	<stop  offset="1" style="stop-color:#808080;stop-opacity:0.1"/>
</linearGradient>
<path class="st2" d="M404.7,535.8c0-37.5-30.4-67.9-67.9-67.9c-32.6,0-60.7,23.2-66.7,55.3l-208.8-5.7l2.3,35.9
	c0,0-29.8,68.7,126.7,87v69.4h180.9V594.4C391.9,582.2,404.7,559.9,404.7,535.8z"/>
<path class="st3" d="M70.8,554.8c0,0-28.5,65.8,121.3,83.3v66.5h173.2V528.5l-296.7-8L70.8,554.8z"/>
<linearGradient id="SVGID_3_" gradientUnits="userSpaceOnUse" x1="246.965" y1="367.5792" x2="246.965" y2="492.4908" gradientTransform="matrix(1 0 0 -1 -163.09 662.78)">
	<stop  offset="0" style="stop-color:#808080;stop-opacity:0.25"/>
	<stop  offset="0.54" style="stop-color:#808080;stop-opacity:0.12"/>
	<stop  offset="1" style="stop-color:#808080;stop-opacity:0.1"/>
</linearGradient>
<path class="st4" d="M157.3,280.3L157.3,280.3c-9.4,14.8-29,19.3-43.9,10l-93-61.3c-14.8-9.4-19.3-29-10-43.9l0,0
	c9.4-14.8,29-19.3,43.9-10l93,61.3C162.2,245.8,166.6,265.4,157.3,280.3z"/>
<path class="st3" d="M152.2,277L152.2,277c-8.7,13.8-27,17.9-40.8,9.3l-86.4-57c-13.8-8.7-17.9-27-9.3-40.8l0,0
	c8.7-13.8,27-17.9,40.8-9.3l86.4,57C156.7,244.9,160.8,263.1,152.2,277z"/>
<circle class="st3" cx="332.4" cy="538" r="65"/>
<linearGradient id="SVGID_4_" gradientUnits="userSpaceOnUse" x1="359.185" y1="67.04" x2="359.185" y2="553.77" gradientTransform="matrix(1 0 0 -1 -163.09 662.77)">
	<stop  offset="0" style="stop-color:#808080;stop-opacity:0.25"/>
	<stop  offset="0.54" style="stop-color:#808080;stop-opacity:0.12"/>
	<stop  offset="1" style="stop-color:#808080;stop-opacity:0.1"/>
</linearGradient>
<path class="st5" d="M71.5,109h249.2c5.7,0,10.2,4.6,10.2,10.2v466.3c0,5.7-4.6,10.2-10.2,10.2H71.5c-5.7,0-10.2-4.6-10.2-10.2
	V119.2C61.3,113.6,65.9,109,71.5,109z"/>
<path class="st6" d="M78.6,115.6h235.1c7.5,0,13.6,6.1,13.6,13.6v446.3c0,7.5-6.1,13.6-13.6,13.6H78.6c-7.5,0-13.6-6.1-13.6-13.6
	V129.2C64.9,121.7,71,115.6,78.6,115.6z"/>
<path class="st7" d="M262,127.5c-1.6,10.4-10.5,18.1-21,18.1h-90.6c-10.5,0-19.4-7.7-21-18.1h-48c-5.5,0-10,4.5-10,10v429.9
	c0,5.5,4.5,10,10,10h229.3c5.5,0,10-4.5,10-10V137.4c0-5.5-4.5-10-10-10L262,127.5z"/>
<path class="st8" d="M169.1,133.1h54.8c1,0,1.8,0.8,1.8,1.8l0,0c0,1-0.8,1.8-1.8,1.8h-54.8c-1,0-1.8-0.8-1.8-1.8l0,0
	C167.2,133.9,168.1,133.1,169.1,133.1z"/>
<circle class="st8" cx="238.1" cy="134.6" r="2.2"/>
<linearGradient id="SVGID_5_" gradientUnits="userSpaceOnUse" x1="510.0534" y1="112.4302" x2="510.0534" y2="344.3065" gradientTransform="matrix(1 0 0 -1 -163.09 662.78)">
	<stop  offset="0" style="stop-color:#808080;stop-opacity:0.25"/>
	<stop  offset="0.54" style="stop-color:#808080;stop-opacity:0.12"/>
	<stop  offset="1" style="stop-color:#808080;stop-opacity:0.1"/>
</linearGradient>
<path class="st9" d="M374.4,549.5L374.4,549.5c-18.9,4.4-31.8-7.9-36.2-26.8l-43.3-161c-4.3-18.9,7.5-37.8,26.4-42.3l0,0
	c19-4.3,37.8,7.5,42.2,26.4L398.9,511C403.3,529.8,393.3,545.1,374.4,549.5z"/>
<path class="st3" d="M323.1,327.5L323.1,327.5c15.9-3.7,31.8,6.2,35.5,22.2l39.9,172.6c3.7,15.9-6.2,31.8-22.2,35.5l0,0
	c-15.9,3.7-31.8-6.2-35.5-22.2L300.9,363C297.3,347.1,307.2,331.2,323.1,327.5z"/>
<linearGradient id="SVGID_6_" gradientUnits="userSpaceOnUse" x1="436.48" y1="-77.8" x2="436.48" y2="-20.09" gradientTransform="matrix(1 0 0 -1 -163.09 662.77)">
	<stop  offset="0" style="stop-color:#808080;stop-opacity:0.25"/>
	<stop  offset="0.54" style="stop-color:#808080;stop-opacity:0.12"/>
	<stop  offset="1" style="stop-color:#808080;stop-opacity:0.1"/>
</linearGradient>
<rect x="149.6" y="682.9" class="st10" width="247.6" height="57.7"/>
<rect x="156.3" y="689.5" class="st11" width="234.2" height="45.2"/>
<linearGradient id="SVGID_7_" gradientUnits="userSpaceOnUse" x1="226.51" y1="195.0045" x2="226.51" y2="298.2055" gradientTransform="matrix(1 0 0 -1 -163.09 662.78)">
	<stop  offset="0" style="stop-color:#808080;stop-opacity:0.25"/>
	<stop  offset="0.54" style="stop-color:#808080;stop-opacity:0.12"/>
	<stop  offset="1" style="stop-color:#808080;stop-opacity:0.1"/>
</linearGradient>
<path class="st12" d="M121.2,453.1L121.2,453.1c-9.3,14.7-28.7,19.1-43.4,9.9l-62.4-40.4C0.8,413.3-3.6,394,5.6,379.2l0,0
	c9.3-14.7,28.7-19.1,43.4-9.9l62.4,40.4C126,419,130.4,438.4,121.2,453.1z"/>
<linearGradient id="SVGID_8_" gradientUnits="userSpaceOnUse" x1="222.4883" y1="109.4503" x2="222.4883" y2="201.0498" gradientTransform="matrix(1 0 0 -1 -163.09 662.78)">
	<stop  offset="0" style="stop-color:#808080;stop-opacity:0.25"/>
	<stop  offset="0.54" style="stop-color:#808080;stop-opacity:0.12"/>
	<stop  offset="1" style="stop-color:#808080;stop-opacity:0.1"/>
</linearGradient>
<path class="st13" d="M105.6,538.5L105.6,538.5c-9.4,14.8-28.9,19.2-43.8,10l-38.6-28.2c-14.8-9.4-19.2-28.9-9.9-43.8l0,0
	c9.4-14.8,28.9-19.2,43.8-10l38.6,28.2C110.4,504.2,114.8,523.7,105.6,538.5z"/>
<g class="st14">
	
		<linearGradient id="SVGID_9_" gradientUnits="userSpaceOnUse" x1="196.1" y1="314.41" x2="196.1" y2="464.85" gradientTransform="matrix(1 0 0 -1 0 742)">
		<stop  offset="0" style="stop-color:#808080;stop-opacity:0.25"/>
		<stop  offset="0.54" style="stop-color:#808080;stop-opacity:0.12"/>
		<stop  offset="1" style="stop-color:#808080;stop-opacity:0.1"/>
	</linearGradient>
	<circle class="st15" cx="196.1" cy="352.4" r="75.2"/>
</g>
<circle class="st16" cx="196.1" cy="352.4" r="70.8"/>
<polygon class="st6" points="165.4,342.9 191.9,367.3 229.5,312 242.8,323 191.9,389.4 154.3,347.4 "/>
<path class="st3" d="M102.5,536.4L102.5,536.4c-8.7,13.8-27,17.9-40.8,9.3l-36-26.3c-13.8-8.7-17.9-27-9.3-40.8l0,0
	c8.7-13.8,27-17.9,40.8-9.3l36,26.3C107,504.4,111.1,522.6,102.5,536.4z"/>
<path class="st3" d="M117.8,450.9L117.8,450.9c-8.7,13.8-27,17.9-40.8,9.3l-58.7-38c-13.8-8.7-17.9-27-9.3-40.8l0,0
	c8.8-13.8,27-17.9,40.9-9.3l58.7,38C122.3,418.9,126.5,437.1,117.8,450.9z"/>
<linearGradient id="SVGID_10_" gradientUnits="userSpaceOnUse" x1="234.205" y1="279.9216" x2="234.205" y2="394.5284" gradientTransform="matrix(1 0 0 -1 -163.09 662.78)">
	<stop  offset="0" style="stop-color:#808080;stop-opacity:0.25"/>
	<stop  offset="0.54" style="stop-color:#808080;stop-opacity:0.12"/>
	<stop  offset="1" style="stop-color:#808080;stop-opacity:0.1"/>
</linearGradient>
<path class="st17" d="M137.4,368.1L137.4,368.1c-9.3,14.7-28.8,19.2-43.6,9.9l-79-51.5C0.1,317.2-4.4,297.8,4.9,283l0,0
	c9.3-14.7,28.8-19.2,43.6-9.9l79,51.5C142.2,333.9,146.6,353.3,137.4,368.1z"/>
<path class="st3" d="M133.2,365.4L133.2,365.4c-8.7,13.8-27,17.9-40.8,9.3l-74-48.2c-13.8-8.7-17.9-27-9.3-40.8l0,0
	c8.7-13.8,27-18,40.8-9.3l74,48.2C137.7,333.3,141.8,351.6,133.2,365.4z"/>
<polyline class="st18" points="207.4,91 207.4,1 603.4,1 603.4,55 "/>
<polyline class="st18" points="441.4,586 612.4,586 612.4,513.7 "/>
<text transform="matrix(1 0 0 1 501.8599 132.77)" class="st7 st19 st20">Экономический факультет</text>
<text transform="matrix(1 0 0 1 501.8602 198.8569)" class="st7 st19 st20">Факультет АСФ</text>
<text transform="matrix(1 0 0 1 502.8604 266.7907)" class="st7 st19 st20">Факультет агробизнеса</text>
<text transform="matrix(1 0 0 1 503.8278 343.5744)" class="st7 st19 st20">Факультет ветеринарной медицины</text>
<text transform="matrix(1 0 0 1 504.5657 407.7303)" class="st7 st19 st20">Инженерно-технологический факультет</text>
<text transform="matrix(1 0 0 1 984.5205 75.8276)" class="st7 st19 st20">Очно</text>
<text transform="matrix(1 0 0 1 1113.582 75.8276)" class="st7 st19 st20">Заочно</text>
<text transform="matrix(1 0 0 1 985.5024 138.0496)" class="st7 st19 st20">5201</text>
<text transform="matrix(1 0 0 1 985.5029 210.957)" class="st7 st19 st20">3204</text>
<text transform="matrix(1 0 0 1 987.4565 270.8755)" class="st7 st19 st20">1325</text>
<text transform="matrix(1 0 0 1 987.4668 343.7617)" class="st7 st19 st20">1312</text>
<text transform="matrix(1 0 0 1 985.5029 410.54)" class="st7 st19 st20">4303</text>
<text transform="matrix(1 0 0 1 1115.1865 138.3132)" class="st7 st19 st20">5208</text>
<text transform="matrix(1 0 0 1 1113.2217 210.957)" class="st7 st19 st20">3102</text>
<text transform="matrix(1 0 0 1 1113.2041 270.8755)" class="st7 st19 st20">1323</text>
<text transform="matrix(1 0 0 1 1115.1865 345.285)" class="st7 st19 st20">1317</text>
<text transform="matrix(1 0 0 1 1113.2217 411.54)" class="st7 st19 st20">4304</text>
<text transform="matrix(1 0 0 1 502.8198 467.8682)" class="st7 st19 st20">Электроэнергетический факультет</text>
<text transform="matrix(1 0 0 1 985.8633 467.3684)" class="st7 st19 st20">4210</text>
<text transform="matrix(1 0 0 1 1113.582 468.3684)" class="st7 st19 st20">4314</text>
</svg>
