<?xml version="1.0" encoding="utf-8"?>
<!-- Generator: Adobe Illustrator 25.0.0, SVG Export Plug-In . SVG Version: 6.00 Build 0)  -->
<svg version="1.1" id="Слой_1" xmlns="http://www.w3.org/2000/svg" xmlns:xlink="http://www.w3.org/1999/xlink" x="0px" y="0px"
	 viewBox="0 0 92 92" style="enable-background:new 0 0 92 92;" xml:space="preserve">
<style type="text/css">
	.st0{opacity:0.5;}
	.st1{fill:url(#SVGID_1_);}
	.st2{fill:#F5F5F5;}
	.st3{fill:#20B2AA;}
	.st4{fill:#333333;}
	.st5{opacity:0.1;enable-background:new    ;}
	.st6{fill:#FDB797;}
	.st7{opacity:0.67;fill:#F5F5F5;}
</style>
<g class="st0">
	
		<linearGradient id="SVGID_1_" gradientUnits="userSpaceOnUse" x1="45.6667" y1="-739.413" x2="45.6667" y2="-663.0428" gradientTransform="matrix(1 0 0 -1 0 -660)">
		<stop  offset="0" style="stop-color:#808080;stop-opacity:0.25"/>
		<stop  offset="0.54" style="stop-color:#808080;stop-opacity:0.12"/>
		<stop  offset="1" style="stop-color:#808080;stop-opacity:0.1"/>
	</linearGradient>
	<circle class="st1" cx="45.7" cy="41.2" r="38.2"/>
</g>
<circle class="st2" cx="45.7" cy="41" r="37.4"/>
<path class="st3" d="M45.8,78.5c7.3,0,14.4-2.1,20.5-6.1c-1.4-7.5-6.6-8-6.6-8H30.8c0,0-4.9,0.4-6.5,7.3
	C30.6,76.2,38.1,78.5,45.8,78.5z"/>
<circle class="st4" cx="45.4" cy="40.2" r="18"/>
<path class="st5" d="M39.6,55.2h11.6l0,0v9.2c0,3.2-2.6,5.8-5.8,5.8l0,0c-3.2,0-5.8-2.6-5.8-5.8c0,0,0,0,0,0L39.6,55.2L39.6,55.2
	L39.6,55.2z"/>
<path class="st6" d="M39.9,54.8h10.8c0.2,0,0.4,0.2,0.4,0.4l0,0V64c0,3.2-2.6,5.8-5.8,5.8c0,0,0,0,0,0l0,0c-3.2,0-5.8-2.6-5.8-5.8
	c0,0,0,0,0,0v-8.9C39.6,55,39.7,54.8,39.9,54.8z"/>
<path class="st5" d="M39.6,59.6c3.7,1.4,7.8,1.4,11.6,0v-1.4H39.6V59.6z"/>
<circle class="st6" cx="45.4" cy="43.8" r="16.6"/>
<path class="st5" d="M33.6,28.7c0,0,7,14.2,26.7,5.9l-4.6-7.2l-8.1-2.9L33.6,28.7z"/>
<path class="st4" d="M33.6,28.5c0,0,7,14.2,26.7,5.9l-4.6-7.2l-8.1-2.9L33.6,28.5z"/>
<path class="st4" d="M33.5,27.6c0.5-1.5,1.3-2.8,2.4-3.9c3.3-3.2,8.6-3.9,11.3-7.6c0.7,1,0.1,2.6-1,3c2.6,0,5.7-0.2,7.2-2.4
	c0.7,1.7,0.4,3.8-0.8,5.2c2.3,0.1,4.8,1.7,5,4c0.1,1.5-0.9,3-2.1,3.9s-2.8,1.3-4.3,1.6C46.6,32.4,30.6,36.5,33.5,27.6z"/>
<ellipse class="st6" cx="28.8" cy="43.8" rx="1.5" ry="2.9"/>
<ellipse class="st6" cx="61.9" cy="43.8" rx="1.5" ry="2.9"/>
<rect x="-38" y="-27.3" class="st7" width="164" height="146"/>
</svg>
