<?xml version="1.0" encoding="utf-8"?>
<!-- Generator: Adobe Illustrator 25.0.0, SVG Export Plug-In . SVG Version: 6.00 Build 0)  -->
<svg version="1.1" id="Layer_1" xmlns="http://www.w3.org/2000/svg" xmlns:xlink="http://www.w3.org/1999/xlink" x="0px" y="0px"
	 viewBox="0 0 484.8 340" style="enable-background:new 0 0 484.8 340;" xml:space="preserve">
<style type="text/css">
	.st0{fill:#0001C3;}
	.st1{fill:#FBFBFB;}
	.st2{opacity:0.21;enable-background:new    ;}
</style>
<path class="st0" d="M423.3,135.2"/>
<path class="st1" d="M260.5,135.2h32.6v183.4c0,6.6-5.4,12-12,12h-8.6c-6.6,0-12-5.4-12-12V135.2z"/>
<g>
	<path class="st1" d="M81.5,86.3c27,0,48.8,21.9,48.8,48.8h32.6c0-45-36.4-81.4-81.5-81.4S0,90.1,0,135.1h32.6
		C32.5,108.2,54.4,86.3,81.5,86.3z"/>
</g>
<path class="st1" d="M423.3,135.2c-27,0-48.8-21.9-48.8-48.8s21.9-48.8,48.8-48.8V5c-45,0-81.4,36.4-81.4,81.4
	c0,46,40.9,76.5,71.8,80.8c3.8,0.5,7.1,0.6,9.6,0.6C423.3,156.9,423.3,146,423.3,135.2z"/>
<path class="st1" d="M0,131.1h32.6v102c0,6.6-5.4,12-12,12H12c-6.6,0-12-5.4-12-12V131.1z"/>
<g>
	<path class="st1" d="M211.7,53.7c-45,0-81.4,36.4-81.4,81.4h32.6c0-26.9,21.8-48.8,48.8-48.8s48.8,21.9,48.8,48.8h32.6
		C293.1,90.1,256.7,53.7,211.7,53.7z"/>
	<path class="st1" d="M130.3,233.2c0,6.6,5.4,12,12,12h8.6c6.6,0,12-5.4,12-12v-104h-32.6V233.2z"/>
</g>
<path class="st2" d="M278.6,88.8c-8.7,7.3-15.5,17-19.5,28.4c-0.3,1-0.6,2-0.9,2.9c2.5,6.9,2.1,13.8,2.4,20.7
	c0.3,8.4,3.9-11.9,6.9-20.7c3.3-9.6,8.6-17.9,15.4-24.7C279.6,90.2,282.4,94.5,278.6,88.8z"/>
<path class="st1" d="M358.2,53.8c-53.9,0-97.7,43.7-97.7,97.7c0,53.9,43.7,97.7,97.7,97.7c53.9,0,97.7-43.7,97.7-97.7
	S412.2,53.8,358.2,53.8z M358.2,216.6c-36,0-65.1-29.2-65.1-65.1c0-36,29.2-65.1,65.1-65.1s65.1,29.2,65.1,65.1
	S394.2,216.6,358.2,216.6z"/>
<path class="st2" d="M455.6,159.7c0,0-8.9,2.9-13.6,3.6c-6.5,1-13,1-19.2,0.1l-2.6,8c7.4,1.5,15.3,1.8,23.2,0.5
	c3.8-0.6,7.4-1.5,10.9-2.7C454.9,168.4,455.6,159.7,455.6,159.7z"/>
<path class="st1" d="M465.4,53.8L465.4,53.8c15,0,22.1-18.5,10.9-28.4c-14.4-12.7-33.2-20.5-53.9-20.5v32.6c12.3,0,23.5,4.5,32.1,12
	C457.5,52.2,461.4,53.8,465.4,53.8z"/>
<path class="st1" d="M455.5,123.1c-8.6,7.5-21.9,12-34.2,12v32.6c20.7,0,41.7-7.8,56-20.5c11.2-9.9,4.1-28.4-10.9-28.4l0,0
	C462.4,118.9,458.5,120.5,455.5,123.1z"/>
<path class="st2" d="M374.6,88.5c-5.3-1.4-10.8-2.1-16.5-2.1c-5.6,0-11,0.7-16.1,2c0.2,3.6,0.5,7.3,0.8,8.6
	c4.9-1.2,10.1-1.8,15.4-1.8c6.2,0,12.1,0.9,17.7,2.5C375.5,96.3,374.5,90.6,374.6,88.5z"/>
</svg>
