<?xml version="1.0" encoding="utf-8"?>
<!-- Generator: Adobe Illustrator 25.0.0, SVG Export Plug-In . SVG Version: 6.00 Build 0)  -->
<svg version="1.1" id="Слой_1" xmlns="http://www.w3.org/2000/svg" xmlns:xlink="http://www.w3.org/1999/xlink" x="0px" y="0px"
	 viewBox="0 0 512 512" style="enable-background:new 0 0 512 512;" xml:space="preserve">
<style type="text/css">
	.st0{fill:url(#SVGID_1_);}
	.st1{fill:#0001C3;}
	.st2{fill:#FBFBFB;}
	.st3{opacity:0.21;enable-background:new    ;}
</style>
<linearGradient id="SVGID_1_" gradientUnits="userSpaceOnUse" x1="-1.4876" y1="258.0404" x2="512.025" y2="258.0404" gradientTransform="matrix(1 0 0 -1 0 514)">
	<stop  offset="0" style="stop-color:#086560"/>
	<stop  offset="1" style="stop-color:#20B2AA"/>
</linearGradient>
<path class="st0" d="M32,34.8C-8.2,76.6,0,121,0,255.9c0,112-19.5,224.3,82.7,250.7c31.9,8.2,314.9,8.2,346.8,0
	c42.6-11,77.2-45.5,82-105.7c0.7-8.4,0.7-281.3,0-289.9C506.5,46.9,467,9.9,414.9,2.4C403,0.6,400.6,0.1,339.4,0
	C122.4,0.1,74.8-9.6,32,34.8L32,34.8z"/>
<path class="st1" d="M416.3,227.3"/>
<path class="st2" d="M272.8,227.3h28.7v161.6c0,5.8-4.8,10.6-10.6,10.6h-7.6c-5.8,0-10.6-4.8-10.6-10.6V227.3H272.8z"/>
<g>
	<path class="st2" d="M115.1,184.2c23.8,0,43,19.3,43,43h28.7c0-39.7-32.1-71.7-71.8-71.7s-71.7,32.1-71.7,71.7H72
		C71.9,203.5,91.2,184.2,115.1,184.2z"/>
</g>
<path class="st2" d="M416.3,227.3c-23.8,0-43-19.3-43-43s19.3-43,43-43v-28.7c-39.7,0-71.7,32.1-71.7,71.7c0,40.5,36,67.4,63.3,71.2
	c3.3,0.4,6.3,0.5,8.5,0.5C416.3,246.4,416.3,236.8,416.3,227.3z"/>
<path class="st2" d="M43.3,223.7H72v89.9c0,5.8-4.8,10.6-10.6,10.6h-7.6c-5.8,0-10.6-4.8-10.6-10.6L43.3,223.7L43.3,223.7z"/>
<g>
	<path class="st2" d="M229.8,155.5c-39.7,0-71.7,32.1-71.7,71.7h28.7c0-23.7,19.2-43,43-43s43,19.3,43,43h28.7
		C301.6,187.6,269.5,155.5,229.8,155.5z"/>
	<path class="st2" d="M158.1,313.7c0,5.8,4.8,10.6,10.6,10.6h7.6c5.8,0,10.6-4.8,10.6-10.6V222h-28.7L158.1,313.7L158.1,313.7z"/>
</g>
<path class="st3" d="M288.8,186.4c-7.7,6.4-13.7,15-17.2,25c-0.3,0.9-0.5,1.8-0.8,2.6c2.2,6.1,1.9,12.2,2.1,18.2
	c0.3,7.4,3.4-10.5,6.1-18.2c2.9-8.5,7.6-15.8,13.6-21.8C289.7,187.7,292.1,191.5,288.8,186.4z"/>
<path class="st2" d="M358.9,155.6c-47.5,0-86.1,38.5-86.1,86.1c0,47.5,38.5,86.1,86.1,86.1c47.5,0,86.1-38.5,86.1-86.1
	S406.5,155.6,358.9,155.6z M358.9,299c-31.7,0-57.4-25.7-57.4-57.4s25.7-57.4,57.4-57.4s57.4,25.7,57.4,57.4S390.7,299,358.9,299z"
	/>
<path class="st3" d="M444.8,248.9c0,0-7.8,2.6-12,3.2c-5.7,0.9-11.5,0.9-16.9,0.1l-2.3,7c6.5,1.3,13.5,1.6,20.4,0.4
	c3.3-0.5,6.5-1.3,9.6-2.4C444.1,256.6,444.8,248.9,444.8,248.9z"/>
<path class="st2" d="M453.4,155.6L453.4,155.6c13.2,0,19.5-16.3,9.6-25c-12.7-11.2-29.3-18.1-47.5-18.1v28.7
	c10.8,0,20.7,4,28.3,10.6C446.4,154.2,449.9,155.6,453.4,155.6z"/>
<path class="st2" d="M444.7,216.7c-7.6,6.6-19.3,10.6-30.1,10.6V256c18.2,0,36.7-6.9,49.3-18.1c9.9-8.7,3.6-25-9.6-25l0,0
	C450.7,213,447.3,214.4,444.7,216.7z"/>
<path class="st3" d="M373.4,186.2c-4.7-1.2-9.5-1.9-14.5-1.9c-4.9,0-9.7,0.6-14.2,1.8c0.2,3.2,0.4,6.4,0.7,7.6
	c4.3-1.1,8.9-1.6,13.6-1.6c5.5,0,10.7,0.8,15.6,2.2C374.2,193,373.3,188,373.4,186.2z"/>
</svg>
