<?xml version="1.0" encoding="utf-8"?>
<!-- Generator: Adobe Illustrator 25.0.0, SVG Export Plug-In . SVG Version: 6.00 Build 0)  -->
<svg version="1.1" id="Layer_1" xmlns="http://www.w3.org/2000/svg" xmlns:xlink="http://www.w3.org/1999/xlink" x="0px" y="0px"
	 viewBox="0 0 1350 601.7" style="enable-background:new 0 0 1350 601.7;" xml:space="preserve">
<style type="text/css">
	.st0{fill:url(#SVGID_1_);}
	.st1{opacity:0.5;fill:url(#SVGID_2_);enable-background:new    ;}
	.st2{opacity:0.5;fill:url(#SVGID_3_);enable-background:new    ;}
	.st3{opacity:0.5;fill:url(#SVGID_4_);enable-background:new    ;}
	.st4{opacity:0.5;fill:url(#SVGID_5_);enable-background:new    ;}
	.st5{opacity:0.5;fill:url(#SVGID_6_);enable-background:new    ;}
	.st6{opacity:0.5;fill:url(#SVGID_7_);enable-background:new    ;}
	.st7{opacity:0.5;fill:url(#SVGID_8_);enable-background:new    ;}
	.st8{opacity:0.5;fill:url(#SVGID_9_);enable-background:new    ;}
	.st9{opacity:0.5;fill:url(#SVGID_10_);enable-background:new    ;}
	.st10{opacity:0.5;fill:url(#SVGID_11_);enable-background:new    ;}
	.st11{opacity:0.5;fill:url(#SVGID_12_);enable-background:new    ;}
	.st12{opacity:0.5;fill:url(#SVGID_13_);enable-background:new    ;}
	.st13{opacity:0.5;fill:url(#SVGID_14_);enable-background:new    ;}
	.st14{opacity:0.5;fill:url(#SVGID_15_);enable-background:new    ;}
	.st15{opacity:0.5;fill:url(#SVGID_16_);enable-background:new    ;}
	.st16{opacity:0.5;fill:url(#SVGID_17_);enable-background:new    ;}
	.st17{opacity:0.5;fill:url(#SVGID_18_);enable-background:new    ;}
	.st18{fill:#0001C3;}
	.st19{fill:#FBFBFB;}
	.st20{opacity:0.21;enable-background:new    ;}
</style>
<g id="Layer_1_copy_2">
	
		<linearGradient id="SVGID_1_" gradientUnits="userSpaceOnUse" x1="-207.3" y1="1804.9854" x2="1991.9999" y2="1804.9854" gradientTransform="matrix(1 0 0 1 0 -1534)">
		<stop  offset="0" style="stop-color:#20B2AA"/>
		<stop  offset="1" style="stop-color:#20B2AA;stop-opacity:0"/>
	</linearGradient>
	<path class="st0" d="M-206.1,515.8c0,0,217.2-66,453.9,3c0,0,0,0,0.1,0c118.7,34.6,243.6,53.2,366.8,35.9
		c136.4-19.1,258.9-65.2,397.7-35.3c107.9,23.2,196.9,83.7,311.5,53.5c122.9-32.4,229-83.7,359.2-76.5
		c111.3,6.2,199,51.1,308.9,10.4v-546H-207.3L-206.1,515.8z	">
<animateTransform  accumulate="none" additive="replace" attributeName="transform" attributeType="XML" calcMode="linear" dur="25" fill="remove" repeatCount="indefinite" restart="always" type="translate" values="150,0;-150,0;150,0;">
			</animateTransform>
	</path>
</g>
<g id="Layer_1_copy">
	
		<linearGradient id="SVGID_2_" gradientUnits="userSpaceOnUse" x1="-306.3" y1="1780.9854" x2="1892.9999" y2="1780.9854" gradientTransform="matrix(1 0 0 1 0 -1534)">
		<stop  offset="0" style="stop-color:#20B2AA"/>
		<stop  offset="1" style="stop-color:#20B2AA;stop-opacity:0"/>
	</linearGradient>
	<path class="st1" d="M-305.1,491.8c0,0,217.2-66,453.9,3c0,0,0,0,0.1,0c118.7,34.6,243.6,53.2,366.8,35.9
		c136.4-19.1,258.9-65.2,397.7-35.3c107.9,23.2,196.9,83.7,311.5,53.5c122.9-32.4,229-83.7,359.2-76.5
		c111.3,6.2,199,51.1,308.9,10.4v-546H-306.3L-305.1,491.8z	">
<animateTransform  accumulate="none" additive="replace" attributeName="transform" attributeType="XML" calcMode="linear" dur="20" fill="remove" repeatCount="indefinite" restart="always" type="translate" values="150,0;-150,0;150,0;">
			</animateTransform>
	</path>
</g>
<g id="Layer_1_1_">
	
		<linearGradient id="SVGID_3_" gradientUnits="userSpaceOnUse" x1="-199.0968" y1="1763.755" x2="1999.0031" y2="1763.755" gradientTransform="matrix(1 0 0 1 0 -1534)">
		<stop  offset="0" style="stop-color:#20B2AA"/>
		<stop  offset="1" style="stop-color:#20B2AA;stop-opacity:0"/>
	</linearGradient>
	<path class="st2" d="M-199.1,458c0,0,217.2-61.5,453.9,2.8c0,0,0,0,0.1,0c118.7,32.3,243.6,49.6,366.8,33.5
		c136.4-17.8,258.9-60.8,397.7-32.9c107.9,21.7,196.9,78,311.5,49.9c122.9-30.2,229-78,359.2-71.3c111.3,5.8,199,47.6,308.9,9.7
		V-59.4l-2194.4,0.1L-199.1,458z	">
<animateTransform  accumulate="none" additive="replace" attributeName="transform" attributeType="XML" calcMode="linear" dur="15" fill="remove" repeatCount="indefinite" restart="always" type="translate" values="50,0;-50,0;50,0;">
			</animateTransform>
	</path>
</g>
<g id="Layer_1_2_">
	
		<linearGradient id="SVGID_4_" gradientUnits="userSpaceOnUse" x1="-200.0968" y1="1763.755" x2="1998.0031" y2="1763.755" gradientTransform="matrix(1 0 0 1 0 -1534)">
		<stop  offset="0" style="stop-color:#20B2AA"/>
		<stop  offset="1" style="stop-color:#20B2AA;stop-opacity:0"/>
	</linearGradient>
	<path class="st3" d="M-200.1,458c0,0,217.2-61.5,453.9,2.8c0,0,0,0,0.1,0c118.7,32.3,243.6,49.6,366.8,33.5
		c136.4-17.8,258.9-60.8,397.7-32.9c107.9,21.7,196.9,78,311.5,49.9c122.9-30.2,229-78,359.2-71.3c111.3,5.8,199,47.6,308.9,9.7
		V-59.4l-2194.4,0.1L-200.1,458z	">
<animateTransform  accumulate="none" additive="replace" attributeName="transform" attributeType="XML" calcMode="linear" dur="15" fill="remove" repeatCount="indefinite" restart="always" type="translate" values="50,0;-50,0;50,0;">
			</animateTransform>
	</path>
</g>
<g id="Layer_1_3_">
	
		<linearGradient id="SVGID_5_" gradientUnits="userSpaceOnUse" x1="-201.0968" y1="1763.755" x2="1997.0031" y2="1763.755" gradientTransform="matrix(1 0 0 1 0 -1534)">
		<stop  offset="0" style="stop-color:#20B2AA"/>
		<stop  offset="1" style="stop-color:#20B2AA;stop-opacity:0"/>
	</linearGradient>
	<path class="st4" d="M-201.1,458c0,0,217.2-61.5,453.9,2.8c0,0,0,0,0.1,0c118.7,32.3,243.6,49.6,366.8,33.5
		c136.4-17.8,258.9-60.8,397.7-32.9c107.9,21.7,196.9,78,311.5,49.9c122.9-30.2,229-78,359.2-71.3c111.3,5.8,199,47.6,308.9,9.7
		V-59.4l-2194.4,0.1L-201.1,458z	">
<animateTransform  accumulate="none" additive="replace" attributeName="transform" attributeType="XML" calcMode="linear" dur="15" fill="remove" repeatCount="indefinite" restart="always" type="translate" values="50,0;-50,0;50,0;">
			</animateTransform>
	</path>
</g>
<g id="Layer_1_4_">
	
		<linearGradient id="SVGID_6_" gradientUnits="userSpaceOnUse" x1="-202.0968" y1="1763.755" x2="1996.0031" y2="1763.755" gradientTransform="matrix(1 0 0 1 0 -1534)">
		<stop  offset="0" style="stop-color:#20B2AA"/>
		<stop  offset="1" style="stop-color:#20B2AA;stop-opacity:0"/>
	</linearGradient>
	<path class="st5" d="M-202.1,458c0,0,217.2-61.5,453.9,2.8c0,0,0,0,0.1,0c118.7,32.3,243.6,49.6,366.8,33.5
		c136.4-17.8,258.9-60.8,397.7-32.9c107.9,21.7,196.9,78,311.5,49.9c122.9-30.2,229-78,359.2-71.3c111.3,5.8,199,47.6,308.9,9.7
		V-59.4l-2194.4,0.1L-202.1,458z	">
<animateTransform  accumulate="none" additive="replace" attributeName="transform" attributeType="XML" calcMode="linear" dur="15" fill="remove" repeatCount="indefinite" restart="always" type="translate" values="50,0;-50,0;50,0;">
			</animateTransform>
	</path>
</g>
<g id="Layer_1_5_">
	
		<linearGradient id="SVGID_7_" gradientUnits="userSpaceOnUse" x1="-203.0968" y1="1763.755" x2="1995.0031" y2="1763.755" gradientTransform="matrix(1 0 0 1 0 -1534)">
		<stop  offset="0" style="stop-color:#20B2AA"/>
		<stop  offset="1" style="stop-color:#20B2AA;stop-opacity:0"/>
	</linearGradient>
	<path class="st6" d="M-203.1,458c0,0,217.2-61.5,453.9,2.8c0,0,0,0,0.1,0c118.7,32.3,243.6,49.6,366.8,33.5
		c136.4-17.8,258.9-60.8,397.7-32.9c107.9,21.7,196.9,78,311.5,49.9c122.9-30.2,229-78,359.2-71.3c111.3,5.8,199,47.6,308.9,9.7
		V-59.4l-2194.4,0.1L-203.1,458z	">
<animateTransform  accumulate="none" additive="replace" attributeName="transform" attributeType="XML" calcMode="linear" dur="15" fill="remove" repeatCount="indefinite" restart="always" type="translate" values="50,0;-50,0;50,0;">
			</animateTransform>
	</path>
</g>
<g id="Layer_1_6_">
	
		<linearGradient id="SVGID_8_" gradientUnits="userSpaceOnUse" x1="-204.0968" y1="1763.755" x2="1994.0031" y2="1763.755" gradientTransform="matrix(1 0 0 1 0 -1534)">
		<stop  offset="0" style="stop-color:#20B2AA"/>
		<stop  offset="1" style="stop-color:#20B2AA;stop-opacity:0"/>
	</linearGradient>
	<path class="st7" d="M-204.1,458c0,0,217.2-61.5,453.9,2.8c0,0,0,0,0.1,0c118.7,32.3,243.6,49.6,366.8,33.5
		c136.4-17.8,258.9-60.8,397.7-32.9c107.9,21.7,196.9,78,311.5,49.9c122.9-30.2,229-78,359.2-71.3c111.3,5.8,199,47.6,308.9,9.7
		V-59.4l-2194.4,0.1L-204.1,458z	">
<animateTransform  accumulate="none" additive="replace" attributeName="transform" attributeType="XML" calcMode="linear" dur="15" fill="remove" repeatCount="indefinite" restart="always" type="translate" values="50,0;-50,0;50,0;">
			</animateTransform>
	</path>
</g>
<g id="Layer_1_7_">
	
		<linearGradient id="SVGID_9_" gradientUnits="userSpaceOnUse" x1="-205.0968" y1="1763.755" x2="1993.0031" y2="1763.755" gradientTransform="matrix(1 0 0 1 0 -1534)">
		<stop  offset="0" style="stop-color:#20B2AA"/>
		<stop  offset="1" style="stop-color:#20B2AA;stop-opacity:0"/>
	</linearGradient>
	<path class="st8" d="M-205.1,458c0,0,217.2-61.5,453.9,2.8c0,0,0,0,0.1,0c118.7,32.3,243.6,49.6,366.8,33.5
		c136.4-17.8,258.9-60.8,397.7-32.9c107.9,21.7,196.9,78,311.5,49.9c122.9-30.2,229-78,359.2-71.3c111.3,5.8,199,47.6,308.9,9.7
		V-59.4l-2194.4,0.1L-205.1,458z	">
<animateTransform  accumulate="none" additive="replace" attributeName="transform" attributeType="XML" calcMode="linear" dur="15" fill="remove" repeatCount="indefinite" restart="always" type="translate" values="50,0;-50,0;50,0;">
			</animateTransform>
	</path>
</g>
<g id="Layer_1_8_">
	
		<linearGradient id="SVGID_10_" gradientUnits="userSpaceOnUse" x1="-206.0968" y1="1763.755" x2="1992.0031" y2="1763.755" gradientTransform="matrix(1 0 0 1 0 -1534)">
		<stop  offset="0" style="stop-color:#20B2AA"/>
		<stop  offset="1" style="stop-color:#20B2AA;stop-opacity:0"/>
	</linearGradient>
	<path class="st9" d="M-206.1,458c0,0,217.2-61.5,453.9,2.8c0,0,0,0,0.1,0c118.7,32.3,243.6,49.6,366.8,33.5
		c136.4-17.8,258.9-60.8,397.7-32.9c107.9,21.7,196.9,78,311.5,49.9c122.9-30.2,229-78,359.2-71.3c111.3,5.8,199,47.6,308.9,9.7
		V-59.4l-2194.4,0.1L-206.1,458z	">
<animateTransform  accumulate="none" additive="replace" attributeName="transform" attributeType="XML" calcMode="linear" dur="15" fill="remove" repeatCount="indefinite" restart="always" type="translate" values="50,0;-50,0;50,0;">
			</animateTransform>
	</path>
</g>
<g id="Layer_1_9_">
	
		<linearGradient id="SVGID_11_" gradientUnits="userSpaceOnUse" x1="-207.0968" y1="1763.755" x2="1991.0031" y2="1763.755" gradientTransform="matrix(1 0 0 1 0 -1534)">
		<stop  offset="0" style="stop-color:#20B2AA"/>
		<stop  offset="1" style="stop-color:#20B2AA;stop-opacity:0"/>
	</linearGradient>
	<path class="st10" d="M-207.1,458c0,0,217.2-61.5,453.9,2.8c0,0,0,0,0.1,0c118.7,32.3,243.6,49.6,366.8,33.5
		c136.4-17.8,258.9-60.8,397.7-32.9c107.9,21.7,196.9,78,311.5,49.9c122.9-30.2,229-78,359.2-71.3c111.3,5.8,199,47.6,308.9,9.7
		V-59.4l-2194.4,0.1L-207.1,458z	">
<animateTransform  accumulate="none" additive="replace" attributeName="transform" attributeType="XML" calcMode="linear" dur="15" fill="remove" repeatCount="indefinite" restart="always" type="translate" values="50,0;-50,0;50,0;">
			</animateTransform>
	</path>
</g>
<g id="Layer_1_10_">
	
		<linearGradient id="SVGID_12_" gradientUnits="userSpaceOnUse" x1="-208.0968" y1="1763.755" x2="1990.0031" y2="1763.755" gradientTransform="matrix(1 0 0 1 0 -1534)">
		<stop  offset="0" style="stop-color:#20B2AA"/>
		<stop  offset="1" style="stop-color:#20B2AA;stop-opacity:0"/>
	</linearGradient>
	<path class="st11" d="M-208.1,458c0,0,217.2-61.5,453.9,2.8c0,0,0,0,0.1,0c118.7,32.3,243.6,49.6,366.8,33.5
		c136.4-17.8,258.9-60.8,397.7-32.9c107.9,21.7,196.9,78,311.5,49.9c122.9-30.2,229-78,359.2-71.3c111.3,5.8,199,47.6,308.9,9.7
		V-59.4l-2194.4,0.1L-208.1,458z	">
<animateTransform  accumulate="none" additive="replace" attributeName="transform" attributeType="XML" calcMode="linear" dur="15" fill="remove" repeatCount="indefinite" restart="always" type="translate" values="50,0;-50,0;50,0;">
			</animateTransform>
	</path>
</g>
<g id="Layer_1_11_">
	
		<linearGradient id="SVGID_13_" gradientUnits="userSpaceOnUse" x1="-209.0968" y1="1763.755" x2="1989.0031" y2="1763.755" gradientTransform="matrix(1 0 0 1 0 -1534)">
		<stop  offset="0" style="stop-color:#20B2AA"/>
		<stop  offset="1" style="stop-color:#20B2AA;stop-opacity:0"/>
	</linearGradient>
	<path class="st12" d="M-209.1,458c0,0,217.2-61.5,453.9,2.8c0,0,0,0,0.1,0c118.7,32.3,243.6,49.6,366.8,33.5
		c136.4-17.8,258.9-60.8,397.7-32.9c107.9,21.7,196.9,78,311.5,49.9c122.9-30.2,229-78,359.2-71.3c111.3,5.8,199,47.6,308.9,9.7
		V-59.4l-2194.4,0.1L-209.1,458z	">
<animateTransform  accumulate="none" additive="replace" attributeName="transform" attributeType="XML" calcMode="linear" dur="15" fill="remove" repeatCount="indefinite" restart="always" type="translate" values="50,0;-50,0;50,0;">
			</animateTransform>
	</path>
</g>
<g id="Layer_1_12_">
	
		<linearGradient id="SVGID_14_" gradientUnits="userSpaceOnUse" x1="-210.0968" y1="1763.755" x2="1988.0031" y2="1763.755" gradientTransform="matrix(1 0 0 1 0 -1534)">
		<stop  offset="0" style="stop-color:#20B2AA"/>
		<stop  offset="1" style="stop-color:#20B2AA;stop-opacity:0"/>
	</linearGradient>
	<path class="st13" d="M-210.1,458c0,0,217.2-61.5,453.9,2.8c0,0,0,0,0.1,0c118.7,32.3,243.6,49.6,366.8,33.5
		c136.4-17.8,258.9-60.8,397.7-32.9c107.9,21.7,196.9,78,311.5,49.9c122.9-30.2,229-78,359.2-71.3c111.3,5.8,199,47.6,308.9,9.7
		V-59.4l-2194.4,0.1L-210.1,458z	">
<animateTransform  accumulate="none" additive="replace" attributeName="transform" attributeType="XML" calcMode="linear" dur="15" fill="remove" repeatCount="indefinite" restart="always" type="translate" values="50,0;-50,0;50,0;">
			</animateTransform>
	</path>
</g>
<g id="Layer_1_13_">
	
		<linearGradient id="SVGID_15_" gradientUnits="userSpaceOnUse" x1="-211.0968" y1="1763.755" x2="1987.0031" y2="1763.755" gradientTransform="matrix(1 0 0 1 0 -1534)">
		<stop  offset="0" style="stop-color:#20B2AA"/>
		<stop  offset="1" style="stop-color:#20B2AA;stop-opacity:0"/>
	</linearGradient>
	<path class="st14" d="M-211.1,458c0,0,217.2-61.5,453.9,2.8c0,0,0,0,0.1,0c118.7,32.3,243.6,49.6,366.8,33.5
		c136.4-17.8,258.9-60.8,397.7-32.9c107.9,21.7,196.9,78,311.5,49.9c122.9-30.2,229-78,359.2-71.3c111.3,5.8,199,47.6,308.9,9.7
		V-59.4l-2194.4,0.1L-211.1,458z	">
<animateTransform  accumulate="none" additive="replace" attributeName="transform" attributeType="XML" calcMode="linear" dur="15" fill="remove" repeatCount="indefinite" restart="always" type="translate" values="50,0;-50,0;50,0;">
			</animateTransform>
	</path>
</g>
<g id="Layer_1_14_">
	
		<linearGradient id="SVGID_16_" gradientUnits="userSpaceOnUse" x1="-212.0968" y1="1763.755" x2="1986.0031" y2="1763.755" gradientTransform="matrix(1 0 0 1 0 -1534)">
		<stop  offset="0" style="stop-color:#20B2AA"/>
		<stop  offset="1" style="stop-color:#20B2AA;stop-opacity:0"/>
	</linearGradient>
	<path class="st15" d="M-212.1,458c0,0,217.2-61.5,453.9,2.8c0,0,0,0,0.1,0c118.7,32.3,243.6,49.6,366.8,33.5
		c136.4-17.8,258.9-60.8,397.7-32.9c107.9,21.7,196.9,78,311.5,49.9c122.9-30.2,229-78,359.2-71.3c111.3,5.8,199,47.6,308.9,9.7
		V-59.4l-2194.4,0.1L-212.1,458z	">
<animateTransform  accumulate="none" additive="replace" attributeName="transform" attributeType="XML" calcMode="linear" dur="15" fill="remove" repeatCount="indefinite" restart="always" type="translate" values="50,0;-50,0;50,0;">
			</animateTransform>
	</path>
</g>
<g id="Layer_1_15_">
	
		<linearGradient id="SVGID_17_" gradientUnits="userSpaceOnUse" x1="-213.0968" y1="1763.755" x2="1985.0031" y2="1763.755" gradientTransform="matrix(1 0 0 1 0 -1534)">
		<stop  offset="0" style="stop-color:#20B2AA"/>
		<stop  offset="1" style="stop-color:#20B2AA;stop-opacity:0"/>
	</linearGradient>
	<path class="st16" d="M-213.1,458c0,0,217.2-61.5,453.9,2.8c0,0,0,0,0.1,0c118.7,32.3,243.6,49.6,366.8,33.5
		c136.4-17.8,258.9-60.8,397.7-32.9c107.9,21.7,196.9,78,311.5,49.9c122.9-30.2,229-78,359.2-71.3c111.3,5.8,199,47.6,308.9,9.7
		V-59.4l-2194.4,0.1L-213.1,458z	">
<animateTransform  accumulate="none" additive="replace" attributeName="transform" attributeType="XML" calcMode="linear" dur="15" fill="remove" repeatCount="indefinite" restart="always" type="translate" values="50,0;-50,0;50,0;">
			</animateTransform>
	</path>
</g>
<g id="Layer_1_16_">
	
		<linearGradient id="SVGID_18_" gradientUnits="userSpaceOnUse" x1="-214.0968" y1="1763.755" x2="1984.0031" y2="1763.755" gradientTransform="matrix(1 0 0 1 0 -1534)">
		<stop  offset="0" style="stop-color:#20B2AA"/>
		<stop  offset="1" style="stop-color:#20B2AA;stop-opacity:0"/>
	</linearGradient>
	<path class="st17" d="M-214.1,458c0,0,217.2-61.5,453.9,2.8c0,0,0,0,0.1,0c118.7,32.3,243.6,49.6,366.8,33.5
		c136.4-17.8,258.9-60.8,397.7-32.9c107.9,21.7,196.9,78,311.5,49.9c122.9-30.2,229-78,359.2-71.3c111.3,5.8,199,47.6,308.9,9.7
		V-59.4l-2194.4,0.1L-214.1,458z	">
<animateTransform  accumulate="none" additive="replace" attributeName="transform" attributeType="XML" calcMode="linear" dur="15" fill="remove" repeatCount="indefinite" restart="always" type="translate" values="50,0;-50,0;50,0;">
			</animateTransform>
	</path>
</g>
<path class="st18" d="M861.8,247.9"/>
<path class="st19" d="M699,247.9h32.6v183.4c0,6.6-5.4,12-12,12H711c-6.6,0-12-5.4-12-12V247.9z"/>
<g>
	<path class="st19" d="M520,199c27,0,48.8,21.9,48.8,48.8h32.6c0-45-36.4-81.4-81.5-81.4s-81.4,36.4-81.4,81.4h32.6
		C471,220.9,492.9,199,520,199z"/>
</g>
<path class="st19" d="M861.8,247.9c-27,0-48.8-21.9-48.8-48.8s21.9-48.8,48.8-48.8v-32.6c-45,0-81.4,36.4-81.4,81.4
	c0,46,40.9,76.5,71.8,80.8c3.8,0.5,7.1,0.6,9.6,0.6C861.8,269.6,861.8,258.7,861.8,247.9z"/>
<path class="st19" d="M438.5,243.8h32.6v102c0,6.6-5.4,12-12,12h-8.6c-6.6,0-12-5.4-12-12V243.8z"/>
<g>
	<path class="st19" d="M650.2,166.4c-45,0-81.4,36.4-81.4,81.4h32.6c0-26.9,21.8-48.8,48.8-48.8s48.8,21.9,48.8,48.8h32.6
		C731.6,202.8,695.2,166.4,650.2,166.4z"/>
	<path class="st19" d="M568.8,345.9c0,6.6,5.4,12,12,12h8.6c6.6,0,12-5.4,12-12v-104h-32.6V345.9z"/>
</g>
<path class="st20" d="M717.1,201.5c-8.7,7.3-15.5,17-19.5,28.4c-0.3,1-0.6,2-0.9,2.9c2.5,6.9,2.1,13.8,2.4,20.7
	c0.3,8.4,3.9-11.9,6.9-20.7c3.3-9.6,8.6-17.9,15.4-24.7C718.1,202.9,720.9,207.2,717.1,201.5z"/>
<path class="st19" d="M796.7,166.5c-53.9,0-97.7,43.7-97.7,97.7c0,53.9,43.7,97.7,97.7,97.7c53.9,0,97.7-43.7,97.7-97.7
	S850.7,166.5,796.7,166.5z M796.7,329.3c-36,0-65.1-29.2-65.1-65.1c0-36,29.2-65.1,65.1-65.1s65.1,29.2,65.1,65.1
	S832.7,329.3,796.7,329.3z"/>
<path class="st20" d="M894.1,272.4c0,0-8.9,2.9-13.6,3.6c-6.5,1-13,1-19.2,0.1l-2.6,8c7.4,1.5,15.3,1.8,23.2,0.5
	c3.8-0.6,7.4-1.5,10.9-2.7C893.4,281.1,894.1,272.4,894.1,272.4z"/>
<path class="st19" d="M903.9,166.5L903.9,166.5c15,0,22.1-18.5,10.9-28.4c-14.4-12.7-33.2-20.5-53.9-20.5v32.6
	c12.3,0,23.5,4.5,32.1,12C896,164.9,899.9,166.5,903.9,166.5z"/>
<path class="st19" d="M894,235.8c-8.6,7.5-21.9,12-34.2,12v32.6c20.7,0,41.7-7.8,56-20.5c11.2-9.9,4.1-28.4-10.9-28.4l0,0
	C900.9,231.6,897,233.2,894,235.8z"/>
<path class="st20" d="M813.1,201.2c-5.3-1.4-10.8-2.1-16.5-2.1c-5.6,0-11,0.7-16.1,2c0.2,3.6,0.5,7.3,0.8,8.6
	c4.9-1.2,10.1-1.8,15.4-1.8c6.2,0,12.1,0.9,17.7,2.5C814,209,813,203.3,813.1,201.2z"/>
</svg>
